<?xml version="1.0" encoding="utf-8"?>
<!-- Generator: Adobe Illustrator 24.0.1, SVG Export Plug-In . SVG Version: 6.00 Build 0)  -->
<svg version="1.1" id="Layer_1" xmlns="http://www.w3.org/2000/svg" xmlns:xlink="http://www.w3.org/1999/xlink" x="0px" y="0px"
	 viewBox="0 0 151.9 100.4" style="enable-background:new 0 0 151.9 100.4;" xml:space="preserve">
<style type="text/css">
	.st0{fill:none;}
	.st1{fill:#EC1C24;}
	.st2{fill:#008ED3;}
	.st3{fill:#58595B;}
</style>
<rect y="-85.1" class="st0" width="148" height="39"/>
<g>
	<g>
		<g>
			<path class="st1" d="M11.5,53.9c-0.5-0.6-0.9-2.6-0.9-4.4c0.2-0.3,0.7-0.3,0.9-0.1c0.5,1.5,2.1,4.6,4.9,4.6
				c2.2,0,3.4-1.3,3.4-3.1c0-1.6-0.8-3-2.9-4.2L15.7,46c-2.2-1.2-4.1-3-4.1-5.6c0-2.9,2.1-5.3,6.3-5.3c1.5,0,2.6,0.3,3.9,0.6
				c0.3,0.6,0.6,2.5,0.6,3.9c-0.1,0.3-0.7,0.3-0.9,0.1c-0.4-1.5-1.4-3.4-3.9-3.4c-2.3,0-3.3,1.5-3.3,3c0,1.2,0.8,2.5,2.7,3.5l1.8,1
				c1.9,1,3.9,2.8,3.9,5.7c0,3.3-2.5,5.6-6.7,5.6C13.6,55.1,12.1,54.2,11.5,53.9z"/>
			<path class="st1" d="M29.8,43c0-0.8,0-0.9-0.5-0.9h-1.1c-1.9,0-2.4,0.2-3.1,1.9c-0.1,0.1-0.6,0.1-0.6-0.1c0.3-1.1,0.6-2.3,0.8-3
				c0-0.1,0.1-0.1,0.2-0.1c0.1,0,0.2,0,0.2,0.1c0.1,0.5,0.4,0.5,1.8,0.5h8.2c1,0,1.3-0.1,1.5-0.5c0.1,0,0.2-0.1,0.2-0.1
				c0.1,0,0.2,0,0.3,0.1c-0.2,0.8-0.4,2.6-0.3,3.2c-0.1,0.2-0.4,0.2-0.6,0.1c-0.3-1.6-0.6-2-2.8-2h-1.1c-0.5,0-0.5,0-0.5,0.9v8.7
				c0,2.1,0.2,2.2,1.1,2.3l0.7,0.1c0.1,0.1,0.1,0.5,0,0.6c-1.2,0-2.1-0.1-3-0.1s-1.8,0-3.1,0.1c-0.2-0.1-0.2-0.5,0-0.6l0.8-0.1
				c0.9-0.1,1.1-0.1,1.1-2.3V43z"/>
			<path class="st1" d="M52.2,48c0,4-3,6.9-7.1,6.9c-4.6,0-7.2-3.2-7.2-6.8c0-4.1,3-7.2,7.2-7.2C49.8,41,52.2,44.4,52.2,48z
				 M40.7,47.6c0,2.8,1.2,6.6,4.6,6.6c2.3,0,4.2-1.7,4.2-5.8c0-3-1.4-6.6-4.6-6.6C42.9,41.8,40.7,43.3,40.7,47.6z"/>
			<path class="st1" d="M55.5,44.4c0-1.9,0-2.2-1-2.3L54,42c-0.1-0.1-0.1-0.5,0-0.6c1.3-0.1,3-0.2,4.6-0.2c1.6,0,2.9,0.2,3.8,0.7
				c1,0.5,1.8,1.5,1.8,2.9c0,1.9-1.4,2.8-2.4,3.2c-0.1,0.1-0.1,0.2,0,0.3c1.6,2.7,2.6,4.4,3.6,5.2c0.6,0.5,1.1,0.6,1.4,0.6
				c0.1,0.1,0.1,0.3,0,0.4c-0.2,0.1-0.6,0.1-1.3,0.1c-1.9,0-3-0.8-4.2-2.7c-0.5-0.8-1.1-2-1.6-2.7c-0.4-0.6-0.6-0.7-1.3-0.7
				c-0.6,0-0.6,0-0.6,0.4v2.6c0,2.1,0.2,2.2,1.1,2.3l0.4,0.1c0.1,0.1,0.1,0.5,0,0.6c-0.9,0-1.8-0.1-2.7-0.1c-0.9,0-1.8,0-2.7,0.1
				c-0.2-0.1-0.2-0.4,0-0.6l0.4-0.1c0.9-0.1,1.1-0.2,1.1-2.3V44.4z M57.8,47.3c0,0.6,0,0.7,1,0.7c2,0,2.9-1,2.9-2.9c0-1.6-1-3-2.8-3
				c-1,0-1.1,0.1-1.1,1V47.3z"/>
			<path class="st1" d="M68.7,44.2c0-2.1-0.2-2.2-1.1-2.3l-0.3,0c-0.1-0.1-0.1-0.5,0-0.6c0.8,0,1.7,0.1,2.6,0.1h3.9
				c1.3,0,2.5,0,2.7-0.1c0.1,0.3,0.2,1.9,0.3,2.8c-0.1,0.2-0.5,0.2-0.6,0.1c-0.3-1.2-0.6-1.7-1.3-1.8c-0.5-0.1-1.1-0.2-1.6-0.2h-1.4
				c-0.9,0-0.9,0-0.9,1.2v3.4c0,0.5,0,0.5,0.5,0.5h1c1.8,0,2.1,0,2.2-0.9l0.1-0.7c0.2-0.1,0.5-0.1,0.6,0c0,0.5-0.1,1.3-0.1,2
				c0,0.8,0,1.5,0.1,2.1c-0.1,0.1-0.5,0.1-0.6,0l-0.1-0.8c-0.1-0.8-0.5-0.9-2.2-0.9h-1c-0.5,0-0.5,0-0.5,0.5v2.6c0,1,0,1.8,0.3,2.1
				c0.2,0.3,0.6,0.4,2.3,0.4c2.6,0,3-0.5,3.7-2.2c0.2-0.1,0.5-0.1,0.6,0.1c-0.1,0.8-0.6,2.4-0.8,2.9c-0.9,0-2.6-0.1-5-0.1h-2.3
				c-0.9,0-2.1,0-3,0.1c-0.2-0.1-0.2-0.4,0-0.6l0.7-0.1c0.9-0.1,1.1-0.2,1.1-2.3V44.2z"/>
			<path class="st2" d="M103.2,53.9c0.3,0.1,0.3,0.7-0.1,0.8c-1.2-0.1-2.4-0.1-3.5-0.1c-1.4,0-2.6,0-3.9,0.1
				c-0.2-0.1-0.3-0.7-0.1-0.8l0.8-0.1c1.2-0.2,1.2-0.4,1.2-2.4v-9.1v-2.7h-0.1c-0.8,1.6-1.2,2.4-1.7,3.6l-2.5,5.1
				c-1,2-2.4,5.2-2.9,6.6c-0.1,0.1-0.5,0.1-0.7,0c-0.5-1.6-1.7-4.4-2.4-5.8l-2.6-5.5c-0.5-1.2-1.3-3-1.7-3.9h-0.1
				C83.1,41,83,43.3,83,44.5c-0.1,1.8-0.1,4.3-0.1,6.7c0,1.9,0,2.4,1.3,2.6l1,0.2c0.2,0.2,0.2,0.7,0,0.8c-1.1-0.1-2-0.1-3-0.1
				c-0.9,0-2,0-3.1,0.1c-0.3-0.1-0.3-0.7-0.1-0.8l0.5-0.1c1.4-0.2,1.6-0.6,1.8-2.4c0.2-1.8,0.3-3.7,0.4-6.7c0.1-2,0.3-4.4,0.3-6.1
				c0-1.4-0.4-2-1.6-2.1l-1-0.2c-0.2-0.2-0.1-0.7,0.1-0.8c0.9,0.1,1.6,0.1,2.7,0.1c1,0,2,0,3.1-0.1c0.1,1.7,0.9,3.2,1.6,4.8L90,47
				c0.2,0.5,1,1.9,1.4,2.6c0.5-0.8,0.9-1.6,1.5-3l2.7-5.5c0.9-1.9,1.8-3.6,2.3-5.5c0.8,0.1,1.7,0.1,2.4,0.1c1.2,0,2.2,0,3-0.1
				c0.3,0.1,0.4,0.7,0.1,0.8l-1,0.1c-1.3,0.2-1.6,0.7-1.6,2.2c0,4.3,0.1,8.5,0.3,12.8c0.1,1.9,0.4,2.1,1.3,2.2L103.2,53.9z"/>
			<path class="st2" d="M108.7,49.7c-0.5,0-0.5,0-0.7,0.5l-0.8,2.4c-0.4,1.2-0.3,1.3,0.4,1.4l0.6,0.1c0.1,0.1,0.1,0.5,0,0.6
				c-0.6,0-1.3,0-2.1-0.1c-0.7,0-1.3,0-2,0.1c-0.1-0.1-0.2-0.4,0-0.6l0.6-0.1c0.6-0.1,0.8-0.3,1.1-0.9c0.2-0.5,0.6-1.4,1-2.5
				l2.8-7.2c0.3-0.6,0.4-1.1,0.4-1.5c0.7-0.1,1.4-1,1.4-1c0.2,0,0.3,0.1,0.3,0.2c0.3,0.9,0.6,1.9,0.9,2.8l2.9,8.5
				c0.5,1.4,0.6,1.5,1.6,1.7l0.3,0.1c0.2,0.1,0.2,0.5,0,0.6c-0.8,0-1.6-0.1-2.6-0.1c-0.9,0-1.8,0-2.5,0.1c-0.2-0.1-0.2-0.5-0.1-0.6
				l0.4-0.1c0.7-0.1,0.8-0.2,0.5-1.1l-0.9-2.7c-0.2-0.5-0.3-0.5-0.8-0.5H108.7z M111.2,48.8c0.6,0,0.6,0,0.5-0.5l-0.8-2.4
				c-0.3-1.1-0.5-1.5-0.6-1.6h0c-0.1,0.1-0.2,0.6-0.6,1.6l-0.8,2.4c-0.2,0.6-0.2,0.6,0.3,0.6H111.2z"/>
			<path class="st2" d="M119.6,44.4c0-1.9,0-2.2-1-2.3l-0.5-0.1c-0.1-0.1-0.1-0.5,0-0.6c1.3-0.1,3-0.2,4.6-0.2
				c1.6,0,2.9,0.2,3.8,0.7c1,0.5,1.8,1.5,1.8,2.9c0,1.9-1.4,2.8-2.4,3.2c-0.1,0.1-0.1,0.2,0,0.3c1.6,2.7,2.6,4.4,3.6,5.2
				c0.6,0.5,1.1,0.6,1.4,0.6c0.1,0.1,0.1,0.3,0,0.4c-0.2,0.1-0.6,0.1-1.3,0.1c-1.9,0-3-0.8-4.2-2.7c-0.5-0.8-1.1-2-1.6-2.7
				c-0.4-0.6-0.6-0.7-1.3-0.7c-0.6,0-0.6,0-0.6,0.4v2.6c0,2.1,0.2,2.2,1.1,2.3l0.4,0.1c0.1,0.1,0.1,0.5,0,0.6
				c-0.9,0-1.8-0.1-2.7-0.1c-0.9,0-1.8,0-2.7,0.1c-0.2-0.1-0.2-0.4,0-0.6l0.4-0.1c0.9-0.1,1.1-0.2,1.1-2.3V44.4z M121.9,47.3
				c0,0.6,0,0.7,1,0.7c2,0,2.9-1,2.9-2.9c0-1.6-1-3-2.8-3c-1,0-1.1,0.1-1.1,1V47.3z"/>
			<path class="st2" d="M135.1,43c0-0.8,0-0.9-0.5-0.9h-1.1c-1.9,0-2.4,0.2-3.1,1.9c-0.1,0.1-0.6,0.1-0.6-0.1c0.3-1.1,0.6-2.3,0.8-3
				c0-0.1,0.1-0.1,0.2-0.1c0.1,0,0.2,0,0.2,0.1c0.1,0.5,0.4,0.5,1.8,0.5h8.2c1,0,1.3-0.1,1.5-0.5c0.1,0,0.2-0.1,0.2-0.1
				c0.1,0,0.2,0,0.3,0.1c-0.2,0.8-0.4,2.6-0.3,3.2c-0.1,0.2-0.4,0.2-0.6,0.1c-0.3-1.6-0.6-2-2.8-2H138c-0.5,0-0.5,0-0.5,0.9v8.7
				c0,2.1,0.2,2.2,1.1,2.3l0.7,0.1c0.1,0.1,0.1,0.5,0,0.6c-1.2,0-2.1-0.1-3-0.1c-0.9,0-1.8,0-3.1,0.1c-0.2-0.1-0.2-0.5,0-0.6L134,54
				c0.9-0.1,1.1-0.1,1.1-2.3V43z"/>
		</g>
	</g>
	<g>
		<g>
			<path class="st3" d="M28,61.1h0.4v3.5h2.2V65H28V61.1z"/>
			<path class="st3" d="M32.5,63.1L32.5,63.1c0-1.1,0.8-2,2-2c1.2,0,2,0.9,2,2v0c0,1.1-0.8,2-2,2C33.3,65.1,32.5,64.1,32.5,63.1z
				 M36,63.1L36,63.1c0-0.9-0.7-1.6-1.6-1.6c-0.9,0-1.5,0.7-1.5,1.6v0c0,0.9,0.7,1.6,1.6,1.6C35.4,64.7,36,64,36,63.1z"/>
			<path class="st3" d="M38.7,63.1L38.7,63.1c0-1.1,0.8-2,2-2c0.7,0,1.1,0.2,1.5,0.5l-0.3,0.3c-0.3-0.3-0.6-0.5-1.2-0.5
				c-0.9,0-1.5,0.7-1.5,1.6v0c0,0.9,0.6,1.6,1.6,1.6c0.5,0,0.9-0.2,1.1-0.4v-1h-1.2v-0.4h1.6v1.6c-0.4,0.3-0.9,0.6-1.6,0.6
				C39.4,65.1,38.7,64.2,38.7,63.1z"/>
			<path class="st3" d="M44.7,61.1h0.4V65h-0.4V61.1z"/>
			<path class="st3" d="M47.4,64.4l0.3-0.3c0.4,0.4,0.8,0.6,1.4,0.6c0.5,0,0.9-0.3,0.9-0.7v0c0-0.4-0.2-0.6-1-0.7
				c-0.9-0.2-1.3-0.5-1.3-1.1v0c0-0.6,0.5-1.1,1.3-1.1c0.6,0,1,0.2,1.4,0.5L50,61.8c-0.4-0.3-0.7-0.4-1.1-0.4
				c-0.5,0-0.8,0.3-0.8,0.6v0c0,0.4,0.2,0.6,1.1,0.8c0.9,0.2,1.3,0.5,1.3,1.1v0c0,0.7-0.6,1.1-1.3,1.1
				C48.4,65.1,47.9,64.9,47.4,64.4z"/>
			<path class="st3" d="M53.7,61.5h-1.3v-0.4h3.1v0.4h-1.3V65h-0.5V61.5z"/>
			<path class="st3" d="M57.7,61.1h0.4V65h-0.4V61.1z"/>
			<path class="st3" d="M60.5,63.1L60.5,63.1c0-1.1,0.8-2,2-2c0.7,0,1.1,0.3,1.5,0.6L63.8,62c-0.3-0.3-0.7-0.5-1.2-0.5
				c-0.9,0-1.5,0.7-1.5,1.6v0c0,0.9,0.7,1.6,1.5,1.6c0.5,0,0.9-0.2,1.3-0.6l0.3,0.3c-0.4,0.4-0.9,0.7-1.6,0.7
				C61.4,65.1,60.5,64.2,60.5,63.1z"/>
			<path class="st3" d="M66,64.4l0.3-0.3c0.4,0.4,0.8,0.6,1.4,0.6c0.5,0,0.9-0.3,0.9-0.7v0c0-0.4-0.2-0.6-1-0.7
				c-0.9-0.2-1.3-0.5-1.3-1.1v0c0-0.6,0.5-1.1,1.3-1.1c0.6,0,1,0.2,1.4,0.5l-0.3,0.3c-0.4-0.3-0.7-0.4-1.1-0.4
				c-0.5,0-0.8,0.3-0.8,0.6v0c0,0.4,0.2,0.6,1.1,0.8c0.9,0.2,1.3,0.5,1.3,1.1v0c0,0.7-0.6,1.1-1.3,1.1C67,65.1,66.5,64.9,66,64.4z"
				/>
			<path class="st3" d="M74.1,64.4l0.4-0.5c0.4,0.3,0.8,0.5,1.2,0.5c0.4,0,0.7-0.2,0.7-0.5v0c0-0.3-0.2-0.4-0.9-0.6
				c-0.8-0.2-1.3-0.5-1.3-1.2v0c0-0.7,0.6-1.1,1.3-1.1c0.6,0,1,0.2,1.4,0.5L76.6,62c-0.4-0.3-0.7-0.4-1.1-0.4
				c-0.4,0-0.6,0.2-0.6,0.5v0c0,0.3,0.2,0.4,0.9,0.6c0.8,0.2,1.3,0.5,1.3,1.2v0c0,0.7-0.6,1.2-1.4,1.2
				C75.1,65.1,74.5,64.9,74.1,64.4z"/>
			<path class="st3" d="M79.4,61.1h0.7V65h-0.7V61.1z"/>
			<path class="st3" d="M82.5,61.1h0.7l1.2,1.9l1.2-1.9h0.7V65h-0.7v-2.8L84.5,64h0l-1.2-1.8V65h-0.7V61.1z"/>
			<path class="st3" d="M88.8,61.1h1.6c0.9,0,1.5,0.5,1.5,1.3v0c0,0.9-0.7,1.3-1.6,1.3h-0.8V65h-0.7V61.1z M90.3,63.1
				c0.5,0,0.8-0.3,0.8-0.7v0c0-0.5-0.3-0.7-0.8-0.7h-0.8v1.4H90.3z"/>
			<path class="st3" d="M94,61.1h0.7v3.3h2.1V65H94V61.1z"/>
			<path class="st3" d="M98.9,61.1h0.7V65h-0.7V61.1z"/>
			<path class="st3" d="M102,61.1h2.9v0.6h-2.2v1.1h2v0.6h-2V65H102V61.1z"/>
			<path class="st3" d="M107.2,61.1h0.7V65h-0.7V61.1z"/>
			<path class="st3" d="M110.3,61.1h2.9v0.6H111v1h2v0.6h-2v1.1h2.3V65h-2.9V61.1z"/>
			<path class="st3" d="M115.5,61.1h1.5c1.2,0,2.1,0.8,2.1,2v0c0,1.1-0.9,2-2.1,2h-1.5V61.1z M116.2,61.7v2.7h0.8
				c0.8,0,1.4-0.6,1.4-1.3v0c0-0.8-0.5-1.3-1.4-1.3H116.2z"/>
		</g>
	</g>
	<path class="st1" d="M151.9,0C100.8,27.3,23.9,20.2,0,7.6l0,64.5l3.4-0.9V12.4C30.7,24.2,107.1,37,151.9,22.5V0z"/>
	<path class="st2" d="M0,100.2c51.2-27.3,128.1-20.2,151.9-7.6V28l-3.4,1v58.8C121.2,75.9,44.9,63.1,0,77.6L0,100.2z"/>
</g>
</svg>
